<svg xmlns="http://www.w3.org/2000/svg" viewBox="0 0 64 64" width="64" height="64">
  <path fill="#666" d="M41.5 42.5H62V8.2c0-1.1-.9-2.2-2-2.2H4c-1.1 0-2 .9-2 2v50c0 1.1.9 2 2 2h37.5V42.5z"/>
  <path fill="#fff"  d="M7 11h50v44H7V11z"/>
  <path fill="#ffde47" d="M57 23H36L26 11h31v12z"/>
  <path fill="#666"  d="M41.5 54.6H7.2V12.2h16.6L38 27h19l-.1 15.5H62V22H41l-9-9.8L25.8 6H4.1C2.9 6 2 6.9 2 8.1v49.7c0 1.1.9 2.1 2.1 2.1h37.4v-5.3z"/>
  <g transform="matrix(4 0 0 4 256 0)">
    <circle fill="#4caf50" cx="-52" cy="12" r="4" />
    <path  fill="#fff"  d="M-49.2 11.3c-.1-.1-.2-.1-.3-.1h-1.8V9.4c0-.1 0-.2-.1-.3 0-.1-.1-.1-.2-.1h-.8c-.1 0-.2 0-.3.1-.1.1-.1.2-.1.3v1.8h-1.8c-.1 0-.2 0-.3.1-.1.1-.1.2-.1.3v.8c0 .1 0 .2.1.3.1.1.2.1.3.1h1.8v2.1c0 .1 0-.1.1.1s.2.1.3.1h.8c.1 0 .2 0 .3-.1s.1-.2.1-.3v-1.8h1.8c.1 0 .2 0 .3-.1.1-.1.1-.2.1-.3v-.8c0-.2-.1-.3-.2-.4z"/>
  </g>
</svg>