<svg xmlns="http://www.w3.org/2000/svg" viewBox="0 0 64 64" width="64" height="64">
  <path fill="#666" d="M48 21V6H4C2.9 6 2 7.1 2 8.2V58c0 1.1.9 2 2 2h56c1.1 0 2-.9 2-2V21H48z"/>
  <path fill="#ffde47" d="M57 55H7V11h50v44z" />
  <path fill="#fff" d="M7 11h31L28 23H7V11z"/>
  <path fill="#666" d="M57 21v34H7V27h19l14-15h8V6H38L23 22H2v35.8c0 1.2.9 2.1 2 2.1h55.9c1.2 0 2.1-1 2.1-2.1V21h-5z"/>
  <g transform="matrix(4 0 0 4 256 0)">
    <circle cx="-52" cy="4" r="4" fill="#4caf50"/>
    <path fill="#fff"  d="M-49.2 3.3c-.1-.1-.2-.1-.3-.1h-1.8V1.4c0-.1 0-.2-.1-.3 0-.1-.1-.1-.2-.1h-.8c-.1 0-.2 0-.3.1s-.1.2-.1.3v1.8h-1.8c-.1 0-.2 0-.3.1s-.1.2-.1.3v.8c0 .1 0 .2.1.3.1.1.2.1.3.1h1.8v1.8c0 .1 0 .2.1.3.1.1.2.1.3.1h.8c.1 0 .2 0 .3-.1s.1-.2.1-.3V4.8h1.8c.1 0 .2 0 .3-.1s.1-.2.1-.3v-.8c0-.1-.1-.2-.2-.3z"/>
  </g>
</svg>