<svg xmlns="http://www.w3.org/2000/svg" viewBox="0 0 64 64" width="64" height="64">
  <path fill="#666" d="M60 60H4c-1.1 0-2-.9-2-2V8c0-1.1.9-2 2-2h56c1.1 0 2 1.1 2 2.2V58c0 1.1-.9 2-2 2z" />
  <path fill="#ffde47" d="M7 11h50v44H7z" id="Calque_11"/>
  <path fill="#fff" d="M57 23H36L26 11h31z"/>
  <path fill="#666" d="M23.7 6H4.1C2.9 6 2 6.9 2 8.1v49.7c0 1.1.9 2.1 2.1 2.1H60c1.1 0 2-.9 2-2.1V22H41l-9-9.8L25.8 6m31 48.6H7.2V12.2h16.6L38 27h19l-.2 27.6z"/>
  <path fill="#888" d="M36.6 50.1c0 .9-.6 1.5-1.5 1.5H14.8c-.9 0-1.5-.6-1.5-1.5v-13H9l14.9-13.6c.6-.4 1.5-.4 1.9 0l15.1 13.6h-4.4v13zM23.5 40v8.7h2.9V40h-2.9z" />
</svg>